<mxfile host="app.diagrams.net" modified="2023-03-30T16:10:04.787Z" agent="Mozilla/5.0 (Windows NT 10.0; Win64; x64) AppleWebKit/537.36 (KHTML, like Gecko) Chrome/111.0.0.0 Safari/537.36" etag="ZA8eEXl53M5wa4Wrj_uP" version="21.1.2" type="github">
  <diagram id="C5RBs43oDa-KdzZeNtuy" name="Page-1">
    <mxGraphModel dx="792" dy="1114" grid="1" gridSize="10" guides="1" tooltips="1" connect="1" arrows="1" fold="1" page="1" pageScale="1" pageWidth="827" pageHeight="1169" math="0" shadow="0">
      <root>
        <mxCell id="WIyWlLk6GJQsqaUBKTNV-0" />
        <mxCell id="WIyWlLk6GJQsqaUBKTNV-1" parent="WIyWlLk6GJQsqaUBKTNV-0" />
        <mxCell id="sQAA1NE3IO8NzLD1KBSR-6" style="edgeStyle=orthogonalEdgeStyle;rounded=0;orthogonalLoop=1;jettySize=auto;html=1;" edge="1" parent="WIyWlLk6GJQsqaUBKTNV-1" source="WIyWlLk6GJQsqaUBKTNV-3" target="sQAA1NE3IO8NzLD1KBSR-5">
          <mxGeometry relative="1" as="geometry" />
        </mxCell>
        <mxCell id="WIyWlLk6GJQsqaUBKTNV-3" value="用户数据" style="rounded=1;whiteSpace=wrap;html=1;fontSize=12;glass=0;strokeWidth=1;shadow=0;" parent="WIyWlLk6GJQsqaUBKTNV-1" vertex="1">
          <mxGeometry x="180" y="195" width="120" height="40" as="geometry" />
        </mxCell>
        <mxCell id="sQAA1NE3IO8NzLD1KBSR-3" value="HBase" style="shape=cylinder3;whiteSpace=wrap;html=1;boundedLbl=1;backgroundOutline=1;size=15;" vertex="1" parent="WIyWlLk6GJQsqaUBKTNV-1">
          <mxGeometry x="384" y="285" width="60" height="80" as="geometry" />
        </mxCell>
        <mxCell id="sQAA1NE3IO8NzLD1KBSR-10" value="" style="edgeStyle=orthogonalEdgeStyle;rounded=0;orthogonalLoop=1;jettySize=auto;html=1;" edge="1" parent="WIyWlLk6GJQsqaUBKTNV-1" source="sQAA1NE3IO8NzLD1KBSR-5" target="sQAA1NE3IO8NzLD1KBSR-3">
          <mxGeometry relative="1" as="geometry" />
        </mxCell>
        <mxCell id="sQAA1NE3IO8NzLD1KBSR-12" style="edgeStyle=orthogonalEdgeStyle;rounded=0;orthogonalLoop=1;jettySize=auto;html=1;" edge="1" parent="WIyWlLk6GJQsqaUBKTNV-1" source="sQAA1NE3IO8NzLD1KBSR-5" target="sQAA1NE3IO8NzLD1KBSR-11">
          <mxGeometry relative="1" as="geometry" />
        </mxCell>
        <mxCell id="sQAA1NE3IO8NzLD1KBSR-16" value="" style="edgeStyle=orthogonalEdgeStyle;rounded=0;orthogonalLoop=1;jettySize=auto;html=1;" edge="1" parent="WIyWlLk6GJQsqaUBKTNV-1" source="sQAA1NE3IO8NzLD1KBSR-5" target="sQAA1NE3IO8NzLD1KBSR-15">
          <mxGeometry relative="1" as="geometry" />
        </mxCell>
        <mxCell id="sQAA1NE3IO8NzLD1KBSR-5" value="kafka" style="shape=process;whiteSpace=wrap;html=1;backgroundOutline=1;" vertex="1" parent="WIyWlLk6GJQsqaUBKTNV-1">
          <mxGeometry x="180" y="295" width="120" height="60" as="geometry" />
        </mxCell>
        <mxCell id="sQAA1NE3IO8NzLD1KBSR-11" value="平台" style="rounded=1;whiteSpace=wrap;html=1;" vertex="1" parent="WIyWlLk6GJQsqaUBKTNV-1">
          <mxGeometry x="40" y="400" width="120" height="60" as="geometry" />
        </mxCell>
        <mxCell id="sQAA1NE3IO8NzLD1KBSR-32" value="" style="edgeStyle=orthogonalEdgeStyle;rounded=0;orthogonalLoop=1;jettySize=auto;html=1;" edge="1" parent="WIyWlLk6GJQsqaUBKTNV-1" source="sQAA1NE3IO8NzLD1KBSR-15" target="sQAA1NE3IO8NzLD1KBSR-30">
          <mxGeometry relative="1" as="geometry" />
        </mxCell>
        <mxCell id="sQAA1NE3IO8NzLD1KBSR-15" value="nacos" style="triangle;whiteSpace=wrap;html=1;" vertex="1" parent="WIyWlLk6GJQsqaUBKTNV-1">
          <mxGeometry x="210" y="390" width="60" height="80" as="geometry" />
        </mxCell>
        <mxCell id="sQAA1NE3IO8NzLD1KBSR-23" value="oracle" style="shape=cylinder3;whiteSpace=wrap;html=1;boundedLbl=1;backgroundOutline=1;size=15;" vertex="1" parent="WIyWlLk6GJQsqaUBKTNV-1">
          <mxGeometry x="205" y="570" width="60" height="80" as="geometry" />
        </mxCell>
        <mxCell id="sQAA1NE3IO8NzLD1KBSR-34" value="" style="edgeStyle=orthogonalEdgeStyle;rounded=0;orthogonalLoop=1;jettySize=auto;html=1;" edge="1" parent="WIyWlLk6GJQsqaUBKTNV-1" source="sQAA1NE3IO8NzLD1KBSR-30" target="sQAA1NE3IO8NzLD1KBSR-23">
          <mxGeometry relative="1" as="geometry" />
        </mxCell>
        <mxCell id="sQAA1NE3IO8NzLD1KBSR-30" value="java" style="shape=note;whiteSpace=wrap;html=1;backgroundOutline=1;darkOpacity=0.05;" vertex="1" parent="WIyWlLk6GJQsqaUBKTNV-1">
          <mxGeometry x="210" y="485" width="50" height="55" as="geometry" />
        </mxCell>
      </root>
    </mxGraphModel>
  </diagram>
</mxfile>
